<svg width="130" height="17" viewBox="0 0 130 17" fill="none" xmlns="http://www.w3.org/2000/svg">
<path d="M43.7758 13.1917C44.3848 13.6776 45.1996 13.9226 46.2119 13.9226C47.0514 13.9226 47.7386 13.7499 48.2695 13.4005C48.8003 13.0512 49.0637 12.5693 49.0637 11.9508C49.0637 11.5171 48.9155 11.1718 48.6234 10.9188C48.3312 10.6618 47.9197 10.461 47.3888 10.3164C46.858 10.1718 46.0391 9.98712 44.928 9.77027C43.8334 9.56948 42.9157 9.30846 42.1709 8.99121C41.426 8.67397 40.8211 8.20412 40.352 7.57766C39.8829 6.9512 39.6483 6.11993 39.6483 5.08387C39.6483 4.14016 39.9158 3.29685 40.4467 2.55394C40.9775 1.81102 41.7141 1.22873 42.6565 0.803062C43.5988 0.377391 44.6646 0.164551 45.8539 0.164551C47.0432 0.164551 48.1707 0.385422 49.146 0.827156C50.1212 1.26889 50.8908 1.87527 51.4504 2.65031C52.0101 3.42535 52.3023 4.29678 52.3187 5.27261H48.825C48.7468 4.57788 48.4464 4.01568 47.9197 3.59001C47.3971 3.16433 46.7057 2.95149 45.8498 2.95149C45.0556 2.95149 44.4218 3.11213 43.9486 3.4374C43.4712 3.76268 43.2367 4.2245 43.2367 4.83088C43.2367 5.26458 43.3807 5.6019 43.6647 5.83883C43.9486 6.07978 44.3519 6.27254 44.8786 6.4171C45.4012 6.56569 46.2119 6.73837 47.3024 6.93915C48.4135 7.13994 49.3476 7.39293 50.1089 7.69411C50.8702 7.9953 51.4833 8.4531 51.9525 9.06349C52.4216 9.67389 52.652 10.4891 52.652 11.5091C52.652 12.5291 52.3763 13.3845 51.8208 14.1635C51.2652 14.9466 50.4957 15.561 49.504 16.0068C48.5122 16.4565 47.4012 16.6814 46.1625 16.6814C44.8333 16.6814 43.6482 16.4445 42.6071 15.9746C41.5701 15.5048 40.7553 14.8502 40.1709 14.0149C39.5866 13.1797 39.2821 12.244 39.2656 11.2079L42.7593 11.2561C42.8211 12.0593 43.1585 12.7058 43.7717 13.1917H43.7758Z" fill="#FCF5F5"/>
<path d="M74.12 9.99922V16.565H70.7662V9.88276C70.7662 8.07165 70.0625 7.1681 68.651 7.1681C67.9227 7.1681 67.3342 7.4211 66.8939 7.92307C66.4495 8.42504 66.2272 9.12378 66.2272 10.0233V16.565H62.8734V9.88276C62.8734 8.07165 62.1615 7.1681 60.7336 7.1681C60.0052 7.1681 59.4209 7.42913 58.9847 7.94716C58.5485 8.4652 58.3304 9.16394 58.3304 10.0474V16.565H54.9766V4.61809H57.9024L58.211 6.10393C58.6225 5.59392 59.1164 5.20038 59.6842 4.91928C60.2521 4.63817 60.9681 4.4936 61.8241 4.47754C63.5689 4.47754 64.7787 5.15219 65.4618 6.49747C65.9063 5.84692 66.4865 5.34896 67.2107 4.99959C67.9309 4.65022 68.7539 4.47754 69.6716 4.47754C70.9884 4.47754 72.0583 4.90321 72.8814 5.75456C73.7044 6.6059 74.1159 8.01945 74.1159 9.99922H74.12Z" fill="#FCF5F5"/>
<path d="M79.1491 5.23251C80.075 4.73053 81.1491 4.47754 82.3712 4.47754C83.5934 4.47754 84.6963 4.71447 85.6386 5.18431C86.581 5.65416 87.3176 6.32077 87.8484 7.18015C88.3793 8.03952 88.6509 9.04748 88.6673 10.208C88.6673 10.6257 88.6344 10.9951 88.5727 11.3204H79.7047V11.4128C79.7828 12.2802 80.0709 12.9588 80.5606 13.4528C81.0503 13.9467 81.7252 14.1957 82.5811 14.1957C83.2642 14.1957 83.828 14.0511 84.2806 13.766C84.7333 13.4809 85.0296 13.0592 85.1736 12.501H88.478C88.3505 13.2881 88.0418 14.0029 87.5521 14.6334C87.0624 15.2639 86.4123 15.7659 85.6016 16.1313C84.795 16.4967 83.865 16.6774 82.8198 16.6774C81.4577 16.6774 80.2808 16.4285 79.289 15.9345C78.2973 15.4406 77.536 14.7338 77.0051 13.8102C76.4743 12.8906 76.2109 11.8184 76.2109 10.5976C76.2109 9.37678 76.4661 8.28047 76.9846 7.36086C77.5031 6.44125 78.2191 5.73046 79.1491 5.22849V5.23251ZM84.4041 7.50543C83.9062 7.11189 83.2766 6.91511 82.5153 6.91511C81.754 6.91511 81.1737 7.11992 80.6717 7.52952C80.1738 7.93913 79.8775 8.4933 79.7787 9.18803H85.3176C85.2065 8.46118 84.902 7.89898 84.4041 7.50543Z" fill="#FCF5F5"/>
<path d="M94.305 0.305176V16.5449H90.9512V0.305176H94.305Z" fill="#FCF5F5"/>
<path d="M100.44 1.27686V4.61798H103.222V7.38082H100.44V12.6013C100.44 13.019 100.53 13.3201 100.711 13.5049C100.892 13.6896 101.197 13.782 101.625 13.782H103.361V16.5448H100.58C98.2505 16.5448 97.0859 15.4083 97.0859 13.1354V1.28088H100.44V1.27686Z" fill="#FCF5F5"/>
<path d="M107.489 5.23251C108.415 4.73053 109.489 4.47754 110.711 4.47754C111.933 4.47754 113.036 4.71447 113.978 5.18431C114.921 5.65416 115.657 6.32077 116.188 7.18015C116.719 8.03952 116.991 9.04748 117.007 10.208C117.007 10.6257 116.974 10.9951 116.913 11.3204H108.044V11.4128C108.123 12.2802 108.411 12.9588 108.9 13.4528C109.39 13.9467 110.065 14.1957 110.921 14.1957C111.604 14.1957 112.168 14.0511 112.62 13.766C113.073 13.4809 113.369 13.0592 113.513 12.501H116.818C116.69 13.2881 116.382 14.0029 115.892 14.6334C115.402 15.2639 114.752 15.7659 113.941 16.1313C113.135 16.4967 112.205 16.6774 111.16 16.6774C109.798 16.6774 108.621 16.4285 107.629 15.9345C106.637 15.4406 105.876 14.7338 105.345 13.8102C104.814 12.8906 104.551 11.8184 104.551 10.5976C104.551 9.37678 104.806 8.28047 105.324 7.36086C105.843 6.44125 106.559 5.73046 107.489 5.22849V5.23251ZM112.74 7.50543C112.242 7.11189 111.612 6.91511 110.851 6.91511C110.09 6.91511 109.509 7.11992 109.007 7.52952C108.509 7.93913 108.213 8.4933 108.114 9.18803H113.653C113.542 8.46118 113.238 7.89898 112.74 7.50543Z" fill="#FCF5F5"/>
<path d="M126.731 7.58972H125.398C124.447 7.58972 123.748 7.86681 123.308 8.425C122.863 8.98319 122.641 9.73816 122.641 10.6979V16.5449H119.287V4.62207H122.328L122.637 6.40909C123.003 5.82278 123.452 5.37704 123.991 5.07585C124.53 4.77467 125.25 4.62207 126.155 4.62207H126.727V7.58972H126.731Z" fill="#FCF5F5"/>
<path d="M0.0292969 10.2844H2.95513V13.4167H18.5061V10.2844H21.4319V16.4807H0.0334129V10.2844H0.0292969Z" fill="#F24664"/>
<path d="M16.8842 4.66632C16.7567 4.66632 16.5345 4.69844 16.2176 4.75868L14.267 5.20042C14.0119 5.26065 13.7444 5.29278 13.4605 5.29278C12.8103 5.29278 12.2424 5.08798 11.7609 4.67837C11.2795 4.26876 10.9338 3.6945 10.7281 2.95159C10.6005 3.6945 10.3083 4.27277 9.84743 4.69041C9.38653 5.10805 8.82688 5.31687 8.16024 5.31687C7.9051 5.31687 7.58001 5.27672 7.18496 5.20042L5.2344 4.75868C4.88462 4.69844 4.65417 4.66632 4.54307 4.66632C4.03691 4.66632 3.64186 4.81491 3.36615 5.10806C3.09044 5.40121 2.95052 5.81885 2.95052 6.36097L2.92583 7.17216H0V6.49751C0 4.9675 0.345669 3.75876 1.03289 2.8793C1.72011 1.99985 2.66247 1.55811 3.85173 1.55811C4.20151 1.55811 4.52661 1.59024 4.82701 1.65048L6.96686 2.04402C7.12323 2.09221 7.36191 2.11229 7.67877 2.11229C8.70755 2.11229 9.23839 1.40953 9.27131 0H12.1725C12.1889 0.694728 12.3288 1.22481 12.5881 1.59024C12.8473 1.95568 13.2424 2.13639 13.765 2.13639C14.0037 2.13639 14.2382 2.10426 14.4769 2.04402L16.6168 1.65048C16.9172 1.59024 17.2423 1.55811 17.592 1.55811C18.7813 1.55811 19.7195 1.99985 20.4109 2.8793C21.1022 3.76277 21.4438 4.9675 21.4438 6.49751V7.17216H18.5179L18.4932 6.36097C18.4932 5.81885 18.3492 5.40121 18.0653 5.10806C17.7813 4.81491 17.3822 4.66632 16.876 4.66632H16.8842Z" fill="#F24664"/>
<path d="M21.4512 7.20026L30.8418 3.39331V6.5497L25.1836 8.73026L30.8418 10.9108V14.0672L21.4512 10.2603V7.19624V7.20026Z" fill="#F24664"/>
<path d="M127.976 12.991C128.548 12.991 129.025 13.1757 129.416 13.5492C129.803 13.9186 130 14.3844 130 14.9426C130 15.5008 129.807 15.9586 129.416 16.3241C129.029 16.6895 128.548 16.8702 127.976 16.8702C127.404 16.8702 126.906 16.6895 126.527 16.3241C126.148 15.9586 125.955 15.5008 125.955 14.9426C125.955 14.3844 126.144 13.9026 126.527 13.5411C126.906 13.1757 127.391 12.995 127.976 12.995V12.991Z" fill="#F24664"/>
</svg>
