<svg width="839" height="196" viewBox="0 0 839 196" fill="none" xmlns="http://www.w3.org/2000/svg">
<g filter="url(#filter0_d_356_138)">
<rect x="4" width="831" height="188" rx="32" fill="#161127"/>
</g>
<g clip-path="url(#clip0_356_138)">
<path d="M307.04 118.346C310.254 120.974 314.555 122.299 319.897 122.299C324.328 122.299 327.955 121.365 330.757 119.475C333.558 117.586 334.949 114.98 334.949 111.635C334.949 109.289 334.167 107.422 332.625 106.053C331.083 104.663 328.911 103.577 326.109 102.796C323.307 102.014 318.985 101.015 313.121 99.8417C307.344 98.7558 302.501 97.3441 298.57 95.6283C294.639 93.9125 291.446 91.3714 288.97 87.9833C286.494 84.5952 285.256 80.0994 285.256 74.496C285.256 69.3921 286.668 64.8312 289.47 60.8133C292.271 56.7953 296.159 53.6461 301.133 51.3439C306.106 49.0417 311.731 47.8906 318.008 47.8906C324.285 47.8906 330.236 49.0852 335.383 51.4742C340.53 53.8633 344.592 57.1428 347.545 61.3345C350.499 65.5262 352.041 70.2392 352.128 75.5168H333.689C333.276 71.7595 331.691 68.7189 328.911 66.4167C326.152 64.1145 322.504 62.9634 317.986 62.9634C313.795 62.9634 310.45 63.8322 307.952 65.5914C305.433 67.3506 304.195 69.8482 304.195 73.1278C304.195 75.4734 304.955 77.2977 306.454 78.5791C307.952 79.8823 310.081 80.9248 312.861 81.7066C315.619 82.5102 319.897 83.4441 325.653 84.5301C331.517 85.616 336.447 86.9843 340.465 88.6132C344.483 90.2421 347.719 92.718 350.195 96.0192C352.671 99.3205 353.887 103.729 353.887 109.246C353.887 114.762 352.432 119.388 349.5 123.602C346.568 127.837 342.507 131.16 337.272 133.571C332.038 136.003 326.174 137.22 319.637 137.22C312.622 137.22 306.367 135.938 300.872 133.397C295.399 130.856 291.098 127.316 288.014 122.798C284.93 118.281 283.323 113.22 283.236 107.617L301.675 107.878C302.001 112.221 303.782 115.718 307.018 118.346H307.04Z" fill="#FCF5F5"/>
<path d="M467.194 101.079V136.589H449.493V100.449C449.493 90.6541 445.779 85.7673 438.329 85.7673C434.485 85.7673 431.379 87.1356 429.056 89.8505C426.71 92.5653 425.537 96.3443 425.537 101.209V136.589H407.836V100.449C407.836 90.6541 404.079 85.7673 396.543 85.7673C392.698 85.7673 389.614 87.179 387.312 89.9808C385.01 92.7825 383.859 96.5615 383.859 101.34V136.589H366.158V71.976H381.6L383.229 80.0119C385.401 77.2536 388.007 75.1252 391.004 73.6049C394.002 72.0846 397.781 71.3027 402.298 71.2158C411.507 71.2158 417.892 74.8646 421.497 82.1403C423.843 78.6219 426.905 75.9288 430.728 74.0393C434.529 72.1497 438.872 71.2158 443.716 71.2158C450.666 71.2158 456.312 73.518 460.656 78.1224C465 82.7267 467.172 90.3717 467.172 101.079H467.194Z" fill="#FCF5F5"/>
<path d="M493.732 75.2989C498.618 72.5841 504.287 71.2158 510.737 71.2158C517.188 71.2158 523.009 72.4972 527.982 75.0383C532.956 77.5794 536.843 81.1847 539.645 85.8325C542.447 90.4803 543.88 95.9317 543.967 102.208C543.967 104.467 543.793 106.465 543.468 108.225H496.664V108.724C497.076 113.415 498.597 117.086 501.181 119.757C503.766 122.429 507.328 123.775 511.845 123.775C515.45 123.775 518.426 122.993 520.815 121.451C523.204 119.909 524.768 117.629 525.528 114.61H542.968C542.295 118.867 540.666 122.733 538.081 126.142C535.497 129.552 532.065 132.267 527.787 134.243C523.53 136.22 518.621 137.197 513.105 137.197C505.916 137.197 499.704 135.851 494.47 133.179C489.236 130.508 485.218 126.685 482.416 121.69C479.615 116.717 478.225 110.918 478.225 104.315C478.225 97.7126 479.571 91.7834 482.308 86.8099C485.044 81.8363 488.823 77.992 493.732 75.2772V75.2989ZM521.467 87.5917C518.839 85.4633 515.516 84.3991 511.498 84.3991C507.48 84.3991 504.417 85.5067 501.768 87.722C499.14 89.9373 497.576 92.9345 497.055 96.6918H526.288C525.702 92.7607 524.094 89.7202 521.467 87.5917Z" fill="#FCF5F5"/>
<path d="M573.726 48.6504V136.481H556.025V48.6504H573.726Z" fill="#FCF5F5"/>
<path d="M606.107 53.9062V71.9762H620.789V86.9186H606.107V115.153C606.107 117.412 606.585 119.041 607.54 120.04C608.496 121.039 610.103 121.538 612.362 121.538H621.527V136.481H606.845C594.553 136.481 588.406 130.334 588.406 118.041V53.928H606.107V53.9062Z" fill="#FCF5F5"/>
<path d="M643.308 75.2989C648.195 72.5841 653.863 71.2158 660.314 71.2158C666.764 71.2158 672.585 72.4972 677.558 75.0383C682.532 77.5794 686.419 81.1847 689.221 85.8325C692.023 90.4803 693.456 95.9317 693.543 102.208C693.543 104.467 693.369 106.465 693.044 108.225H646.24V108.724C646.653 113.415 648.173 117.086 650.757 119.757C653.342 122.429 656.904 123.775 661.421 123.775C665.027 123.775 668.002 122.993 670.391 121.451C672.78 119.909 674.344 117.629 675.104 114.61H692.544C691.871 118.867 690.242 122.733 687.657 126.142C685.073 129.552 681.641 132.267 677.363 134.243C673.106 136.22 668.198 137.197 662.681 137.197C655.492 137.197 649.281 135.851 644.046 133.179C638.812 130.508 634.794 126.685 631.992 121.69C629.191 116.717 627.801 110.918 627.801 104.315C627.801 97.7126 629.147 91.7834 631.884 86.8099C634.62 81.8363 638.4 77.992 643.308 75.2772V75.2989ZM671.021 87.5917C668.393 85.4633 665.07 84.3991 661.052 84.3991C657.034 84.3991 653.972 85.5067 651.322 87.722C648.694 89.9373 647.13 92.9345 646.609 96.6918H675.842C675.256 92.7607 673.649 89.7202 671.021 87.5917Z" fill="#FCF5F5"/>
<path d="M744.869 88.0482H737.832C732.815 88.0482 729.123 89.5467 726.799 92.5656C724.454 95.5845 723.281 99.6677 723.281 104.858V136.481H705.58V71.998H721.63L723.259 81.6629C725.192 78.4919 727.559 76.0812 730.405 74.4523C733.25 72.8234 737.05 71.998 741.829 71.998H744.847V88.0482H744.869Z" fill="#FCF5F5"/>
<path d="M76.1562 102.621H91.5982V119.562H173.673V102.621H189.115V136.133H76.178V102.621H76.1562Z" fill="#F24664"/>
<path d="M165.112 72.2371C164.439 72.2371 163.266 72.4108 161.593 72.7366L151.299 75.1257C149.952 75.4515 148.54 75.6252 147.042 75.6252C143.61 75.6252 140.613 74.5176 138.072 72.3023C135.531 70.0869 133.707 66.9812 132.621 62.9632C131.947 66.9812 130.405 70.1087 127.973 72.3674C125.54 74.6261 122.587 75.7555 119.068 75.7555C117.722 75.7555 116.006 75.5383 113.921 75.1257L103.626 72.7366C101.78 72.4108 100.564 72.2371 99.9774 72.2371C97.306 72.2371 95.221 73.0407 93.7659 74.6262C92.3107 76.2116 91.5723 78.4704 91.5723 81.4024L91.442 85.7896H76V82.1408C76 73.866 77.8244 67.3287 81.4514 62.5723C85.0784 57.8159 90.052 55.4268 96.3287 55.4268C98.1748 55.4268 99.8906 55.6006 101.476 55.9264L112.77 58.0548C113.595 58.3154 114.855 58.424 116.527 58.424C121.957 58.424 124.758 54.6233 124.932 47H140.244C140.331 50.7573 141.069 53.6242 142.438 55.6006C143.806 57.577 145.891 58.5543 148.649 58.5543C149.909 58.5543 151.147 58.3806 152.406 58.0548L163.7 55.9264C165.285 55.6006 167.001 55.4268 168.847 55.4268C175.124 55.4268 180.076 57.8159 183.725 62.5723C187.373 67.3504 189.176 73.866 189.176 82.1408V85.7896H173.734L173.604 81.4024C173.604 78.4704 172.844 76.2116 171.345 74.6262C169.846 73.0407 167.74 72.2371 165.068 72.2371H165.112Z" fill="#F24664"/>
<path d="M189.217 85.9418L238.779 65.3525V82.4234L208.916 94.2167L238.779 106.01V123.081L189.217 102.492V85.9201V85.9418Z" fill="#F24664"/>
<path d="M751.914 116.986C755.04 116.986 757.648 118.039 759.783 120.167C761.897 122.271 762.976 124.925 762.976 128.106C762.976 131.286 761.919 133.894 759.783 135.976C757.67 138.058 755.04 139.087 751.914 139.087C748.789 139.087 746.069 138.058 744 135.976C741.932 133.894 740.875 131.286 740.875 128.106C740.875 124.925 741.909 122.18 744 120.121C746.069 118.039 748.722 117.009 751.914 117.009V116.986Z" fill="#F24664"/>
</g>
<defs>
<filter id="filter0_d_356_138" x="0" y="0" width="839" height="196" filterUnits="userSpaceOnUse" color-interpolation-filters="sRGB">
<feFlood flood-opacity="0" result="BackgroundImageFix"/>
<feColorMatrix in="SourceAlpha" type="matrix" values="0 0 0 0 0 0 0 0 0 0 0 0 0 0 0 0 0 0 127 0" result="hardAlpha"/>
<feOffset dy="4"/>
<feGaussianBlur stdDeviation="2"/>
<feComposite in2="hardAlpha" operator="out"/>
<feColorMatrix type="matrix" values="0 0 0 0 0 0 0 0 0 0 0 0 0 0 0 0 0 0 0.25 0"/>
<feBlend mode="normal" in2="BackgroundImageFix" result="effect1_dropShadow_356_138"/>
<feBlend mode="normal" in="SourceGraphic" in2="effect1_dropShadow_356_138" result="shape"/>
</filter>
<clipPath id="clip0_356_138">
<rect width="687" height="93" fill="white" transform="translate(76 47)"/>
</clipPath>
</defs>
</svg>
