<svg width="759" height="188" viewBox="0 0 759 188" fill="none" xmlns="http://www.w3.org/2000/svg">
<g clip-path="url(#clip0_356_138)">
<path d="M231.04 118.346C234.254 120.974 238.555 122.299 243.897 122.299C248.328 122.299 251.955 121.365 254.757 119.475C257.558 117.586 258.949 114.98 258.949 111.635C258.949 109.289 258.167 107.422 256.625 106.053C255.083 104.663 252.911 103.577 250.109 102.796C247.307 102.014 242.985 101.015 237.121 99.8417C231.344 98.7558 226.501 97.3441 222.57 95.6283C218.639 93.9125 215.446 91.3714 212.97 87.9833C210.494 84.5952 209.256 80.0994 209.256 74.496C209.256 69.3921 210.668 64.8312 213.47 60.8133C216.271 56.7953 220.159 53.6461 225.133 51.3439C230.106 49.0417 235.731 47.8906 242.008 47.8906C248.285 47.8906 254.236 49.0852 259.383 51.4742C264.53 53.8633 268.592 57.1428 271.545 61.3345C274.499 65.5262 276.041 70.2392 276.128 75.5168H257.689C257.276 71.7595 255.691 68.7189 252.911 66.4167C250.152 64.1145 246.504 62.9634 241.986 62.9634C237.795 62.9634 234.45 63.8322 231.952 65.5914C229.433 67.3506 228.195 69.8482 228.195 73.1278C228.195 75.4734 228.955 77.2977 230.454 78.5791C231.952 79.8823 234.081 80.9248 236.861 81.7066C239.619 82.5102 243.897 83.4441 249.653 84.5301C255.517 85.616 260.447 86.9843 264.465 88.6132C268.483 90.2421 271.719 92.718 274.195 96.0192C276.671 99.3205 277.887 103.729 277.887 109.246C277.887 114.762 276.432 119.388 273.5 123.602C270.568 127.837 266.507 131.16 261.272 133.571C256.038 136.003 250.174 137.22 243.637 137.22C236.622 137.22 230.367 135.938 224.872 133.397C219.399 130.856 215.098 127.316 212.014 122.798C208.93 118.281 207.323 113.22 207.236 107.617L225.675 107.878C226.001 112.221 227.782 115.718 231.018 118.346H231.04Z" fill="#FCF5F5"/>
<path d="M391.194 101.079V136.589H373.493V100.449C373.493 90.6541 369.779 85.7673 362.329 85.7673C358.485 85.7673 355.379 87.1356 353.056 89.8505C350.71 92.5653 349.537 96.3443 349.537 101.209V136.589H331.836V100.449C331.836 90.6541 328.079 85.7673 320.543 85.7673C316.698 85.7673 313.614 87.179 311.312 89.9808C309.01 92.7825 307.859 96.5615 307.859 101.34V136.589H290.158V71.976H305.6L307.229 80.0119C309.401 77.2536 312.007 75.1252 315.004 73.6049C318.002 72.0846 321.781 71.3027 326.298 71.2158C335.507 71.2158 341.892 74.8646 345.497 82.1403C347.843 78.6219 350.905 75.9288 354.728 74.0393C358.529 72.1497 362.872 71.2158 367.716 71.2158C374.666 71.2158 380.312 73.518 384.656 78.1224C389 82.7267 391.172 90.3717 391.172 101.079H391.194Z" fill="#FCF5F5"/>
<path d="M417.732 75.2989C422.618 72.5841 428.287 71.2158 434.737 71.2158C441.188 71.2158 447.009 72.4972 451.982 75.0383C456.956 77.5794 460.843 81.1847 463.645 85.8325C466.447 90.4803 467.88 95.9317 467.967 102.208C467.967 104.467 467.793 106.465 467.468 108.225H420.664V108.724C421.076 113.415 422.597 117.086 425.181 119.757C427.766 122.429 431.328 123.775 435.845 123.775C439.45 123.775 442.426 122.993 444.815 121.451C447.204 119.909 448.768 117.629 449.528 114.61H466.968C466.295 118.867 464.666 122.733 462.081 126.142C459.497 129.552 456.065 132.267 451.787 134.243C447.53 136.22 442.621 137.197 437.105 137.197C429.916 137.197 423.704 135.851 418.47 133.179C413.236 130.508 409.218 126.685 406.416 121.69C403.615 116.717 402.225 110.918 402.225 104.315C402.225 97.7126 403.571 91.7834 406.308 86.8099C409.044 81.8363 412.823 77.992 417.732 75.2772V75.2989ZM445.467 87.5917C442.839 85.4633 439.516 84.3991 435.498 84.3991C431.48 84.3991 428.417 85.5067 425.768 87.722C423.14 89.9373 421.576 92.9345 421.055 96.6918H450.288C449.702 92.7607 448.094 89.7202 445.467 87.5917Z" fill="#FCF5F5"/>
<path d="M497.726 48.6504V136.481H480.025V48.6504H497.726Z" fill="#FCF5F5"/>
<path d="M530.107 53.9062V71.9762H544.789V86.9186H530.107V115.153C530.107 117.412 530.585 119.041 531.54 120.04C532.496 121.039 534.103 121.538 536.362 121.538H545.527V136.481H530.845C518.553 136.481 512.406 130.334 512.406 118.041V53.928H530.107V53.9062Z" fill="#FCF5F5"/>
<path d="M567.308 75.2989C572.195 72.5841 577.863 71.2158 584.314 71.2158C590.764 71.2158 596.585 72.4972 601.558 75.0383C606.532 77.5794 610.419 81.1847 613.221 85.8325C616.023 90.4803 617.456 95.9317 617.543 102.208C617.543 104.467 617.369 106.465 617.044 108.225H570.24V108.724C570.653 113.415 572.173 117.086 574.757 119.757C577.342 122.429 580.904 123.775 585.421 123.775C589.027 123.775 592.002 122.993 594.391 121.451C596.78 119.909 598.344 117.629 599.104 114.61H616.544C615.871 118.867 614.242 122.733 611.657 126.142C609.073 129.552 605.641 132.267 601.363 134.243C597.106 136.22 592.198 137.197 586.681 137.197C579.492 137.197 573.281 135.851 568.046 133.179C562.812 130.508 558.794 126.685 555.992 121.69C553.191 116.717 551.801 110.918 551.801 104.315C551.801 97.7126 553.147 91.7834 555.884 86.8099C558.62 81.8363 562.4 77.992 567.308 75.2772V75.2989ZM595.021 87.5917C592.393 85.4633 589.07 84.3991 585.052 84.3991C581.034 84.3991 577.972 85.5067 575.322 87.722C572.694 89.9373 571.13 92.9345 570.609 96.6918H599.842C599.256 92.7607 597.649 89.7202 595.021 87.5917Z" fill="#FCF5F5"/>
<path d="M668.869 88.0482H661.832C656.815 88.0482 653.123 89.5467 650.799 92.5656C648.454 95.5845 647.281 99.6677 647.281 104.858V136.481H629.58V71.998H645.63L647.259 81.6629C649.192 78.4919 651.559 76.0812 654.405 74.4523C657.25 72.8234 661.05 71.998 665.829 71.998H668.847V88.0482H668.869Z" fill="#FCF5F5"/>
<path d="M0.15625 102.621H15.5982V119.562H97.6732V102.621H113.115V136.133H0.177973V102.621H0.15625Z" fill="#F24664"/>
<path d="M89.1117 72.2371C88.4385 72.2371 87.2657 72.4108 85.5933 72.7366L75.2987 75.1257C73.9521 75.4515 72.5404 75.6252 71.0418 75.6252C67.6103 75.6252 64.6131 74.5176 62.072 72.3023C59.5309 70.0869 57.7065 66.9812 56.6206 62.9632C55.9473 66.9812 54.4053 70.1087 51.9728 72.3674C49.5403 74.6261 46.5866 75.7555 43.0681 75.7555C41.7216 75.7555 40.0058 75.5383 37.9208 75.1257L27.6262 72.7366C25.7801 72.4108 24.5638 72.2371 23.9774 72.2371C21.306 72.2371 19.221 73.0407 17.7659 74.6262C16.3107 76.2116 15.5723 78.4704 15.5723 81.4024L15.442 85.7896H0V82.1408C0 73.866 1.82437 67.3287 5.45139 62.5723C9.07841 57.8159 14.052 55.4268 20.3287 55.4268C22.1748 55.4268 23.8906 55.6006 25.476 55.9264L36.7697 58.0548C37.595 58.3154 38.8547 58.424 40.5271 58.424C45.9567 58.424 48.7584 54.6233 48.9322 47H64.2439C64.3307 50.7573 65.0692 53.6242 66.4375 55.6006C67.8057 57.577 69.8907 58.5543 72.649 58.5543C73.9087 58.5543 75.1466 58.3806 76.4063 58.0548L87.7 55.9264C89.2855 55.6006 91.0013 55.4268 92.8474 55.4268C99.1241 55.4268 104.076 57.8159 107.725 62.5723C111.373 67.3504 113.176 73.866 113.176 82.1408V85.7896H97.7341L97.6038 81.4024C97.6038 78.4704 96.8436 76.2116 95.345 74.6262C93.8464 73.0407 91.7397 72.2371 89.0683 72.2371H89.1117Z" fill="#F24664"/>
<path d="M113.217 85.9418L162.779 65.3525V82.4234L132.916 94.2167L162.779 106.01V123.081L113.217 102.492V85.9201V85.9418Z" fill="#F24664"/>
<path d="M675.914 116.986C679.04 116.986 681.648 118.039 683.783 120.167C685.897 122.271 686.976 124.925 686.976 128.106C686.976 131.286 685.919 133.894 683.783 135.976C681.67 138.058 679.04 139.087 675.914 139.087C672.789 139.087 670.069 138.058 668 135.976C665.932 133.894 664.875 131.286 664.875 128.106C664.875 124.925 665.909 122.18 668 120.121C670.069 118.039 672.722 117.009 675.914 117.009V116.986Z" fill="#F24664"/>
</g>
<defs>
<clipPath id="clip0_356_138">
<rect width="687" height="93" fill="white" transform="translate(0 47)"/>
</clipPath>
</defs>
</svg>
