<?xml version="1.0" encoding="UTF-8" standalone="no" ?>
<!DOCTYPE svg PUBLIC "-//W3C//DTD SVG 1.1//EN" "http://www.w3.org/Graphics/SVG/1.1/DTD/svg11.dtd">
<svg xmlns="http://www.w3.org/2000/svg" xmlns:xlink="http://www.w3.org/1999/xlink" version="1.1" width="1080" height="300" viewBox="0 0 1080 300" xml:space="preserve">
<desc>Created with Fabric.js 5.2.4</desc>
<defs>
</defs>
<g transform="matrix(1 0 0 1 540 150)" id="814d3b24-8f8d-4b26-a16c-d7e5a399cfbc"  >
<rect style="stroke: none; stroke-width: 1; stroke-dasharray: none; stroke-linecap: butt; stroke-dashoffset: 0; stroke-linejoin: miter; stroke-miterlimit: 4; fill: rgb(22,17,39); fill-rule: nonzero; opacity: 1;" vector-effect="non-scaling-stroke"  x="-540" y="-150" rx="0" ry="0" width="1080" height="300" />
</g>
<g transform="matrix(Infinity NaN NaN Infinity 0 0)" id="e68d8c4e-0b2b-4d15-8839-6cde7071d92a"  >
</g>
<g transform="matrix(7.46 0 0 7.46 540 150)"  >
<g style="" vector-effect="non-scaling-stroke"   >
		<g transform="matrix(1 0 0 1 -19.04 -0.01)"  >
<path style="stroke: none; stroke-width: 1; stroke-dasharray: none; stroke-linecap: butt; stroke-dashoffset: 0; stroke-linejoin: miter; stroke-miterlimit: 4; fill: rgb(252,245,245); fill-rule: nonzero; opacity: 1;" vector-effect="non-scaling-stroke"  transform=" translate(-45.96, -8.42)" d="M 43.7758 13.1917 C 44.3848 13.6776 45.1996 13.9226 46.2119 13.9226 C 47.0514 13.9226 47.7386 13.7499 48.2695 13.4005 C 48.8003 13.0512 49.0637 12.5693 49.0637 11.9508 C 49.0637 11.5171 48.9155 11.1718 48.6234 10.9188 C 48.3312 10.6618 47.9197 10.461 47.3888 10.3164 C 46.858 10.1718 46.0391 9.98712 44.928 9.77027 C 43.8334 9.56948 42.9157 9.30846 42.1709 8.99121 C 41.426 8.67397 40.8211 8.20412 40.352 7.57766 C 39.8829 6.9512 39.6483 6.11993 39.6483 5.08387 C 39.6483 4.14016 39.9158 3.29685 40.4467 2.55394 C 40.9775 1.81102 41.7141 1.22873 42.6565 0.803062 C 43.5988 0.377391 44.6646 0.164551 45.8539 0.164551 C 47.0432 0.164551 48.1707 0.385422 49.146 0.827156 C 50.1212 1.26889 50.8908 1.87527 51.4504 2.65031 C 52.0101 3.42535 52.3023 4.29678 52.3187 5.27261 L 48.825 5.27261 C 48.7468 4.57788 48.4464 4.01568 47.9197 3.59001 C 47.3971 3.16433 46.7057 2.95149 45.8498 2.95149 C 45.0556 2.95149 44.4218 3.11213 43.9486 3.4374 C 43.4712 3.76268 43.2367 4.2245 43.2367 4.83088 C 43.2367 5.26458 43.3807 5.6019 43.6647 5.83883 C 43.9486 6.07978 44.3519 6.27254 44.8786 6.4171 C 45.4012 6.56569 46.2119 6.73837 47.3024 6.93915 C 48.4135 7.13994 49.3476 7.39293 50.1089 7.69411 C 50.8702 7.9953 51.4833 8.4531 51.9525 9.06349 C 52.4216 9.67389 52.652 10.4891 52.652 11.5091 C 52.652 12.5291 52.3763 13.3845 51.8208 14.1635 C 51.2652 14.9466 50.4957 15.561 49.504 16.0068 C 48.5122 16.4565 47.4012 16.6814 46.1625 16.6814 C 44.8333 16.6814 43.6482 16.4445 42.6071 15.9746 C 41.5701 15.5048 40.7553 14.8502 40.1709 14.0149 C 39.5866 13.1797 39.2821 12.244 39.2656 11.2079 L 42.7593 11.2561 C 42.8211 12.0593 43.1585 12.7058 43.7717 13.1917 L 43.7758 13.1917 Z" stroke-linecap="round" />
</g>
		<g transform="matrix(1 0 0 1 -0.45 2.09)"  >
<path style="stroke: none; stroke-width: 1; stroke-dasharray: none; stroke-linecap: butt; stroke-dashoffset: 0; stroke-linejoin: miter; stroke-miterlimit: 4; fill: rgb(252,245,245); fill-rule: nonzero; opacity: 1;" vector-effect="non-scaling-stroke"  transform=" translate(-64.55, -10.52)" d="M 74.12 9.99922 L 74.12 16.565 L 70.7662 16.565 L 70.7662 9.88276 C 70.7662 8.07165 70.0625 7.1681 68.651 7.1681 C 67.9227 7.1681 67.3342 7.4211 66.8939 7.92307 C 66.4495 8.42504 66.2272 9.12378 66.2272 10.0233 L 66.2272 16.565 L 62.8734 16.565 L 62.8734 9.88276 C 62.8734 8.07165 62.1615 7.1681 60.7336 7.1681 C 60.0052 7.1681 59.4209 7.42913 58.9847 7.94716 C 58.5485 8.4652 58.3304 9.16394 58.3304 10.0474 L 58.3304 16.565 L 54.9766 16.565 L 54.9766 4.61809 L 57.9024 4.61809 L 58.211 6.10393 C 58.6225 5.59392 59.1164 5.20038 59.6842 4.91928 C 60.2521 4.63817 60.9681 4.4936 61.8241 4.47754 C 63.5689 4.47754 64.7787 5.15219 65.4618 6.49747 C 65.9063 5.84692 66.4865 5.34896 67.2107 4.99959 C 67.9309 4.65022 68.7539 4.47754 69.6716 4.47754 C 70.9884 4.47754 72.0583 4.90321 72.8814 5.75456 C 73.7044 6.6059 74.1159 8.01945 74.1159 9.99922 L 74.12 9.99922 Z" stroke-linecap="round" />
</g>
		<g transform="matrix(1 0 0 1 17.44 2.14)"  >
<path style="stroke: none; stroke-width: 1; stroke-dasharray: none; stroke-linecap: butt; stroke-dashoffset: 0; stroke-linejoin: miter; stroke-miterlimit: 4; fill: rgb(252,245,245); fill-rule: nonzero; opacity: 1;" vector-effect="non-scaling-stroke"  transform=" translate(-82.44, -10.58)" d="M 79.1491 5.23251 C 80.075 4.73053 81.1491 4.47754 82.3712 4.47754 C 83.5934 4.47754 84.6963 4.71447 85.6386 5.18431 C 86.581 5.65416 87.3176 6.32077 87.8484 7.18015 C 88.3793 8.03952 88.6509 9.04748 88.6673 10.208 C 88.6673 10.6257 88.6344 10.9951 88.5727 11.3204 L 79.7047 11.3204 L 79.7047 11.4128 C 79.7828 12.2802 80.0709 12.9588 80.5606 13.4528 C 81.0503 13.9467 81.7252 14.1957 82.5811 14.1957 C 83.2642 14.1957 83.828 14.0511 84.2806 13.766 C 84.7333 13.4809 85.0296 13.0592 85.1736 12.501 L 88.478 12.501 C 88.3505 13.2881 88.0418 14.0029 87.5521 14.6334 C 87.0624 15.2639 86.4123 15.7659 85.6016 16.1313 C 84.795 16.4967 83.865 16.6774 82.8198 16.6774 C 81.4577 16.6774 80.2808 16.4285 79.289 15.9345 C 78.2973 15.4406 77.536 14.7338 77.0051 13.8102 C 76.4743 12.8906 76.2109 11.8184 76.2109 10.5976 C 76.2109 9.37678 76.4661 8.28047 76.9846 7.36086 C 77.5031 6.44125 78.2191 5.73046 79.1491 5.22849 L 79.1491 5.23251 Z M 84.4041 7.50543 C 83.9062 7.11189 83.2766 6.91511 82.5153 6.91511 C 81.754 6.91511 81.1737 7.11992 80.6717 7.52952 C 80.1738 7.93913 79.8775 8.4933 79.7787 9.18803 L 85.3176 9.18803 C 85.2065 8.46118 84.902 7.89898 84.4041 7.50543 Z" stroke-linecap="round" />
</g>
		<g transform="matrix(1 0 0 1 27.63 -0.01)"  >
<path style="stroke: none; stroke-width: 1; stroke-dasharray: none; stroke-linecap: butt; stroke-dashoffset: 0; stroke-linejoin: miter; stroke-miterlimit: 4; fill: rgb(252,245,245); fill-rule: nonzero; opacity: 1;" vector-effect="non-scaling-stroke"  transform=" translate(-92.63, -8.43)" d="M 94.305 0.305176 L 94.305 16.5449 L 90.9512 16.5449 L 90.9512 0.305176 L 94.305 0.305176 Z" stroke-linecap="round" />
</g>
		<g transform="matrix(1 0 0 1 35.22 0.48)"  >
<path style="stroke: none; stroke-width: 1; stroke-dasharray: none; stroke-linecap: butt; stroke-dashoffset: 0; stroke-linejoin: miter; stroke-miterlimit: 4; fill: rgb(252,245,245); fill-rule: nonzero; opacity: 1;" vector-effect="non-scaling-stroke"  transform=" translate(-100.22, -8.91)" d="M 100.44 1.27686 L 100.44 4.61798 L 103.222 4.61798 L 103.222 7.38082 L 100.44 7.38082 L 100.44 12.6013 C 100.44 13.019 100.53 13.3201 100.711 13.5049 C 100.892 13.6896 101.197 13.782 101.625 13.782 L 103.361 13.782 L 103.361 16.5448 L 100.58 16.5448 C 98.2505 16.5448 97.0859 15.4083 97.0859 13.1354 L 97.0859 1.28088 L 100.44 1.28088 L 100.44 1.27686 Z" stroke-linecap="round" />
</g>
		<g transform="matrix(1 0 0 1 45.78 2.14)"  >
<path style="stroke: none; stroke-width: 1; stroke-dasharray: none; stroke-linecap: butt; stroke-dashoffset: 0; stroke-linejoin: miter; stroke-miterlimit: 4; fill: rgb(252,245,245); fill-rule: nonzero; opacity: 1;" vector-effect="non-scaling-stroke"  transform=" translate(-110.78, -10.58)" d="M 107.489 5.23251 C 108.415 4.73053 109.489 4.47754 110.711 4.47754 C 111.933 4.47754 113.036 4.71447 113.978 5.18431 C 114.921 5.65416 115.657 6.32077 116.188 7.18015 C 116.719 8.03952 116.991 9.04748 117.007 10.208 C 117.007 10.6257 116.974 10.9951 116.913 11.3204 L 108.044 11.3204 L 108.044 11.4128 C 108.123 12.2802 108.411 12.9588 108.9 13.4528 C 109.39 13.9467 110.065 14.1957 110.921 14.1957 C 111.604 14.1957 112.168 14.0511 112.62 13.766 C 113.073 13.4809 113.369 13.0592 113.513 12.501 L 116.818 12.501 C 116.69 13.2881 116.382 14.0029 115.892 14.6334 C 115.402 15.2639 114.752 15.7659 113.941 16.1313 C 113.135 16.4967 112.205 16.6774 111.16 16.6774 C 109.798 16.6774 108.621 16.4285 107.629 15.9345 C 106.637 15.4406 105.876 14.7338 105.345 13.8102 C 104.814 12.8906 104.551 11.8184 104.551 10.5976 C 104.551 9.37678 104.806 8.28047 105.324 7.36086 C 105.843 6.44125 106.559 5.73046 107.489 5.22849 L 107.489 5.23251 Z M 112.74 7.50543 C 112.242 7.11189 111.612 6.91511 110.851 6.91511 C 110.09 6.91511 109.509 7.11992 109.007 7.52952 C 108.509 7.93913 108.213 8.4933 108.114 9.18803 L 113.653 9.18803 C 113.542 8.46118 113.238 7.89898 112.74 7.50543 Z" stroke-linecap="round" />
</g>
		<g transform="matrix(1 0 0 1 58.01 2.15)"  >
<path style="stroke: none; stroke-width: 1; stroke-dasharray: none; stroke-linecap: butt; stroke-dashoffset: 0; stroke-linejoin: miter; stroke-miterlimit: 4; fill: rgb(252,245,245); fill-rule: nonzero; opacity: 1;" vector-effect="non-scaling-stroke"  transform=" translate(-123.01, -10.58)" d="M 126.731 7.58972 L 125.398 7.58972 C 124.447 7.58972 123.748 7.86681 123.308 8.425 C 122.863 8.98319 122.641 9.73816 122.641 10.6979 L 122.641 16.5449 L 119.287 16.5449 L 119.287 4.62207 L 122.328 4.62207 L 122.637 6.40909 C 123.003 5.82278 123.452 5.37704 123.991 5.07585 C 124.53 4.77467 125.25 4.62207 126.155 4.62207 L 126.727 4.62207 L 126.727 7.58972 L 126.731 7.58972 Z" stroke-linecap="round" />
</g>
		<g transform="matrix(1 0 0 1 -54.27 4.95)"  >
<path style="stroke: none; stroke-width: 1; stroke-dasharray: none; stroke-linecap: butt; stroke-dashoffset: 0; stroke-linejoin: miter; stroke-miterlimit: 4; fill: rgb(242,70,100); fill-rule: nonzero; opacity: 1;" vector-effect="non-scaling-stroke"  transform=" translate(-10.73, -13.38)" d="M 0.0292969 10.2844 L 2.95513 10.2844 L 2.95513 13.4167 L 18.5061 13.4167 L 18.5061 10.2844 L 21.4319 10.2844 L 21.4319 16.4807 L 0.0334129 16.4807 L 0.0334129 10.2844 L 0.0292969 10.2844 Z" stroke-linecap="round" />
</g>
		<g transform="matrix(1 0 0 1 -54.28 -4.85)"  >
<path style="stroke: none; stroke-width: 1; stroke-dasharray: none; stroke-linecap: butt; stroke-dashoffset: 0; stroke-linejoin: miter; stroke-miterlimit: 4; fill: rgb(242,70,100); fill-rule: nonzero; opacity: 1;" vector-effect="non-scaling-stroke"  transform=" translate(-10.72, -3.59)" d="M 16.8842 4.66632 C 16.7567 4.66632 16.5345 4.69844 16.2176 4.75868 L 14.267 5.20042 C 14.0119 5.26065 13.7444 5.29278 13.4605 5.29278 C 12.8103 5.29278 12.2424 5.08798 11.7609 4.67837 C 11.2795 4.26876 10.9338 3.6945 10.7281 2.95159 C 10.6005 3.6945 10.3083 4.27277 9.84743 4.69041 C 9.38653 5.10805 8.82688 5.31687 8.16024 5.31687 C 7.9051 5.31687 7.58001 5.27672 7.18496 5.20042 L 5.2344 4.75868 C 4.88462 4.69844 4.65417 4.66632 4.54307 4.66632 C 4.03691 4.66632 3.64186 4.81491 3.36615 5.10806 C 3.09044 5.40121 2.95052 5.81885 2.95052 6.36097 L 2.92583 7.17216 L 0 7.17216 L 0 6.49751 C 0 4.9675 0.345669 3.75876 1.03289 2.8793 C 1.72011 1.99985 2.66247 1.55811 3.85173 1.55811 C 4.20151 1.55811 4.52661 1.59024 4.82701 1.65048 L 6.96686 2.04402 C 7.12323 2.09221 7.36191 2.11229 7.67877 2.11229 C 8.70755 2.11229 9.23839 1.40953 9.27131 0 L 12.1725 0 C 12.1889 0.694728 12.3288 1.22481 12.5881 1.59024 C 12.8473 1.95568 13.2424 2.13639 13.765 2.13639 C 14.0037 2.13639 14.2382 2.10426 14.4769 2.04402 L 16.6168 1.65048 C 16.9172 1.59024 17.2423 1.55811 17.592 1.55811 C 18.7813 1.55811 19.7195 1.99985 20.4109 2.8793 C 21.1022 3.76277 21.4438 4.9675 21.4438 6.49751 L 21.4438 7.17216 L 18.5179 7.17216 L 18.4932 6.36097 C 18.4932 5.81885 18.3492 5.40121 18.0653 5.10806 C 17.7813 4.81491 17.3822 4.66632 16.876 4.66632 L 16.8842 4.66632 Z" stroke-linecap="round" />
</g>
		<g transform="matrix(1 0 0 1 -38.85 0.3)"  >
<path style="stroke: none; stroke-width: 1; stroke-dasharray: none; stroke-linecap: butt; stroke-dashoffset: 0; stroke-linejoin: miter; stroke-miterlimit: 4; fill: rgb(242,70,100); fill-rule: nonzero; opacity: 1;" vector-effect="non-scaling-stroke"  transform=" translate(-26.15, -8.73)" d="M 21.4512 7.20026 L 30.8418 3.39331 L 30.8418 6.5497 L 25.1836 8.73026 L 30.8418 10.9108 L 30.8418 14.0672 L 21.4512 10.2603 L 21.4512 7.19624 L 21.4512 7.20026 Z" stroke-linecap="round" />
</g>
		<g transform="matrix(1 0 0 1 62.98 6.5)"  >
<path style="stroke: none; stroke-width: 1; stroke-dasharray: none; stroke-linecap: butt; stroke-dashoffset: 0; stroke-linejoin: miter; stroke-miterlimit: 4; fill: rgb(242,70,100); fill-rule: nonzero; opacity: 1;" vector-effect="non-scaling-stroke"  transform=" translate(-127.98, -14.93)" d="M 127.976 12.991 C 128.548 12.991 129.025 13.1757 129.416 13.5492 C 129.803 13.9186 130 14.3844 130 14.9426 C 130 15.5008 129.807 15.9586 129.416 16.3241 C 129.029 16.6895 128.548 16.8702 127.976 16.8702 C 127.404 16.8702 126.906 16.6895 126.527 16.3241 C 126.148 15.9586 125.955 15.5008 125.955 14.9426 C 125.955 14.3844 126.144 13.9026 126.527 13.5411 C 126.906 13.1757 127.391 12.995 127.976 12.995 L 127.976 12.991 Z" stroke-linecap="round" />
</g>
</g>
</g>
<g transform="matrix(NaN NaN NaN NaN 0 0)"  >
<g style=""   >
</g>
</g>
</svg>