<svg width="687" height="93" viewBox="0 0 687 93" fill="none" xmlns="http://www.w3.org/2000/svg">
<path d="M231.04 71.346C234.254 73.974 238.555 75.2989 243.897 75.2989C248.328 75.2989 251.955 74.3649 254.757 72.4754C257.558 70.5859 258.949 67.9797 258.949 64.635C258.949 62.2894 258.167 60.4216 256.625 59.0533C255.083 57.6633 252.911 56.5774 250.109 55.7955C247.307 55.0136 242.985 54.0146 237.121 52.8417C231.344 51.7558 226.501 50.3441 222.57 48.6283C218.639 46.9125 215.446 44.3714 212.97 40.9833C210.494 37.5952 209.256 33.0994 209.256 27.496C209.256 22.3921 210.668 17.8312 213.47 13.8133C216.271 9.79531 220.159 6.6461 225.133 4.34392C230.106 2.04174 235.731 0.890625 242.008 0.890625C248.285 0.890625 254.236 2.08517 259.383 4.47423C264.53 6.86328 268.592 10.1428 271.545 14.3345C274.499 18.5262 276.041 23.2392 276.128 28.5168H257.689C257.276 24.7595 255.691 21.7189 252.911 19.4167C250.152 17.1145 246.504 15.9634 241.986 15.9634C237.795 15.9634 234.45 16.8322 231.952 18.5914C229.433 20.3506 228.195 22.8482 228.195 26.1278C228.195 28.4734 228.955 30.2977 230.454 31.5791C231.952 32.8823 234.081 33.9248 236.861 34.7066C239.619 35.5102 243.897 36.4441 249.653 37.5301C255.517 38.616 260.447 39.9843 264.465 41.6132C268.483 43.2421 271.719 45.718 274.195 49.0192C276.671 52.3205 277.887 56.7294 277.887 62.2459C277.887 67.7625 276.432 72.3885 273.5 76.602C270.568 80.8371 266.507 84.1601 261.272 86.5709C256.038 89.0033 250.174 90.2196 243.637 90.2196C236.622 90.2196 230.367 88.9382 224.872 86.3971C219.399 83.856 215.098 80.3159 212.014 75.7984C208.93 71.2809 207.323 66.2204 207.236 60.617L225.675 60.8777C226.001 65.2214 227.782 68.7181 231.018 71.346H231.04Z" fill="#FCF5F5"/>
<path d="M391.194 54.079V89.5891H373.493V53.4492C373.493 43.6541 369.779 38.7673 362.329 38.7673C358.485 38.7673 355.379 40.1356 353.056 42.8505C350.71 45.5653 349.537 49.3443 349.537 54.2093V89.5891H331.836V53.4492C331.836 43.6541 328.079 38.7673 320.543 38.7673C316.698 38.7673 313.614 40.179 311.312 42.9808C309.01 45.7825 307.859 49.5615 307.859 54.3396V89.5891H290.158V24.976H305.6L307.229 33.0119C309.401 30.2536 312.007 28.1252 315.004 26.6049C318.002 25.0846 321.781 24.3027 326.298 24.2158C335.507 24.2158 341.892 27.8646 345.497 35.1403C347.843 31.6219 350.905 28.9288 354.728 27.0393C358.529 25.1497 362.872 24.2158 367.716 24.2158C374.666 24.2158 380.312 26.518 384.656 31.1224C389 35.7267 391.172 43.3717 391.172 54.079H391.194Z" fill="#FCF5F5"/>
<path d="M417.732 28.2989C422.618 25.5841 428.287 24.2158 434.737 24.2158C441.188 24.2158 447.009 25.4972 451.982 28.0383C456.956 30.5794 460.843 34.1847 463.645 38.8325C466.447 43.4803 467.88 48.9317 467.967 55.2084C467.967 57.4671 467.793 59.4653 467.468 61.2245H420.664V61.724C421.076 66.4152 422.597 70.0857 425.181 72.7571C427.766 75.4285 431.328 76.775 435.845 76.775C439.45 76.775 442.426 75.9932 444.815 74.4511C447.204 72.9091 448.768 70.6286 449.528 67.6097H466.968C466.295 71.8666 464.666 75.7326 462.081 79.1424C459.497 82.5522 456.065 85.267 451.787 87.2434C447.53 89.2198 442.621 90.1972 437.105 90.1972C429.916 90.1972 423.704 88.8506 418.47 86.1792C413.236 83.5078 409.218 79.6853 406.416 74.6901C403.615 69.7165 402.225 63.9176 402.225 57.3151C402.225 50.7126 403.571 44.7834 406.308 39.8099C409.044 34.8363 412.823 30.992 417.732 28.2772V28.2989ZM445.467 40.5917C442.839 38.4633 439.516 37.3991 435.498 37.3991C431.48 37.3991 428.417 38.5067 425.768 40.722C423.14 42.9373 421.576 45.9345 421.055 49.6918H450.288C449.702 45.7607 448.094 42.7202 445.467 40.5917Z" fill="#FCF5F5"/>
<path d="M497.726 1.65039V89.4808H480.025V1.65039H497.726Z" fill="#FCF5F5"/>
<path d="M530.107 6.90625V24.9762H544.789V39.9186H530.107V68.1529C530.107 70.4117 530.585 72.0406 531.54 73.0396C532.496 74.0387 534.103 74.5382 536.362 74.5382H545.527V89.4807H530.845C518.553 89.4807 512.406 83.3343 512.406 71.0415V6.92799H530.107V6.90625Z" fill="#FCF5F5"/>
<path d="M567.308 28.2989C572.195 25.5841 577.863 24.2158 584.314 24.2158C590.764 24.2158 596.585 25.4972 601.558 28.0383C606.532 30.5794 610.419 34.1847 613.221 38.8325C616.023 43.4803 617.456 48.9317 617.543 55.2084C617.543 57.4671 617.369 59.4653 617.044 61.2245H570.24V61.724C570.653 66.4152 572.173 70.0857 574.757 72.7571C577.342 75.4285 580.904 76.775 585.421 76.775C589.027 76.775 592.002 75.9932 594.391 74.4511C596.78 72.9091 598.344 70.6286 599.104 67.6097H616.544C615.871 71.8666 614.242 75.7326 611.657 79.1424C609.073 82.5522 605.641 85.267 601.363 87.2434C597.106 89.2198 592.198 90.1972 586.681 90.1972C579.492 90.1972 573.281 88.8506 568.046 86.1792C562.812 83.5078 558.794 79.6853 555.992 74.6901C553.191 69.7165 551.801 63.9176 551.801 57.3151C551.801 50.7126 553.147 44.7834 555.884 39.8099C558.62 34.8363 562.4 30.992 567.308 28.2772V28.2989ZM595.021 40.5917C592.393 38.4633 589.07 37.3991 585.052 37.3991C581.034 37.3991 577.972 38.5067 575.322 40.722C572.694 42.9373 571.13 45.9345 570.609 49.6918H599.842C599.256 45.7607 597.649 42.7202 595.021 40.5917Z" fill="#FCF5F5"/>
<path d="M668.869 41.0482H661.832C656.815 41.0482 653.123 42.5467 650.799 45.5656C648.454 48.5845 647.281 52.6677 647.281 57.8584V89.4808H629.58V24.998H645.63L647.259 34.6629C649.192 31.4919 651.559 29.0812 654.405 27.4523C657.25 25.8234 661.05 24.998 665.829 24.998H668.847V41.0482H668.869Z" fill="#FCF5F5"/>
<path d="M0.15625 55.6211H15.5982V72.5616H97.6732V55.6211H113.115V89.133H0.177973V55.6211H0.15625Z" fill="#F24664"/>
<path d="M89.1117 25.2371C88.4385 25.2371 87.2657 25.4108 85.5933 25.7366L75.2987 28.1257C73.9521 28.4515 72.5404 28.6252 71.0418 28.6252C67.6103 28.6252 64.6131 27.5176 62.072 25.3023C59.5309 23.0869 57.7065 19.9812 56.6206 15.9632C55.9473 19.9812 54.4053 23.1087 51.9728 25.3674C49.5403 27.6261 46.5866 28.7555 43.0681 28.7555C41.7216 28.7555 40.0058 28.5383 37.9208 28.1257L27.6262 25.7366C25.7801 25.4108 24.5638 25.2371 23.9774 25.2371C21.306 25.2371 19.221 26.0407 17.7659 27.6262C16.3107 29.2116 15.5723 31.4704 15.5723 34.4024L15.442 38.7896H0V35.1408C0 26.866 1.82437 20.3287 5.45139 15.5723C9.07841 10.8159 14.052 8.42683 20.3287 8.42683C22.1748 8.42683 23.8906 8.6006 25.476 8.92638L36.7697 11.0548C37.595 11.3154 38.8547 11.424 40.5271 11.424C45.9567 11.424 48.7584 7.62326 48.9322 0H64.2439C64.3307 3.75733 65.0692 6.62418 66.4375 8.60058C67.8057 10.577 69.8907 11.5543 72.649 11.5543C73.9087 11.5543 75.1466 11.3806 76.4063 11.0548L87.7 8.92638C89.2855 8.6006 91.0013 8.42683 92.8474 8.42683C99.1241 8.42683 104.076 10.8159 107.725 15.5723C111.373 20.3504 113.176 26.866 113.176 35.1408V38.7896H97.7341L97.6038 34.4024C97.6038 31.4704 96.8436 29.2116 95.345 27.6262C93.8464 26.0407 91.7397 25.2371 89.0683 25.2371H89.1117Z" fill="#F24664"/>
<path d="M113.217 38.9418L162.779 18.3525V35.4234L132.916 47.2167L162.779 59.0099V76.0808L113.217 55.4915V38.9201V38.9418Z" fill="#F24664"/>
<path d="M675.914 69.9863C679.04 69.9863 681.648 71.0388 683.783 73.1665C685.897 75.2714 686.976 77.9253 686.976 81.1055C686.976 84.2857 685.919 86.8939 683.783 88.9759C681.67 91.0579 679.04 92.0874 675.914 92.0874C672.789 92.0874 670.069 91.0579 668 88.9759C665.932 86.8939 664.875 84.2857 664.875 81.1055C664.875 77.9253 665.909 75.1799 668 73.1208C670.069 71.0388 672.722 70.0092 675.914 70.0092V69.9863Z" fill="#F24664"/>
</svg>
