<svg width="831" height="188" viewBox="0 0 831 188" fill="none" xmlns="http://www.w3.org/2000/svg">
<g clip-path="url(#clip0_356_138)">
<path d="M303.04 118.346C306.254 120.974 310.555 122.299 315.897 122.299C320.328 122.299 323.955 121.365 326.757 119.475C329.558 117.586 330.949 114.98 330.949 111.635C330.949 109.289 330.167 107.422 328.625 106.053C327.083 104.663 324.911 103.577 322.109 102.796C319.307 102.014 314.985 101.015 309.121 99.8417C303.344 98.7558 298.501 97.3441 294.57 95.6283C290.639 93.9125 287.446 91.3714 284.97 87.9833C282.494 84.5952 281.256 80.0994 281.256 74.496C281.256 69.3921 282.668 64.8312 285.47 60.8133C288.271 56.7953 292.159 53.6461 297.133 51.3439C302.106 49.0417 307.731 47.8906 314.008 47.8906C320.285 47.8906 326.236 49.0852 331.383 51.4742C336.53 53.8633 340.592 57.1428 343.545 61.3345C346.499 65.5262 348.041 70.2392 348.128 75.5168H329.689C329.276 71.7595 327.691 68.7189 324.911 66.4167C322.152 64.1145 318.504 62.9634 313.986 62.9634C309.795 62.9634 306.45 63.8322 303.952 65.5914C301.433 67.3506 300.195 69.8482 300.195 73.1278C300.195 75.4734 300.955 77.2977 302.454 78.5791C303.952 79.8823 306.081 80.9248 308.861 81.7066C311.619 82.5102 315.897 83.4441 321.653 84.5301C327.517 85.616 332.447 86.9843 336.465 88.6132C340.483 90.2421 343.719 92.718 346.195 96.0192C348.671 99.3205 349.887 103.729 349.887 109.246C349.887 114.762 348.432 119.388 345.5 123.602C342.568 127.837 338.507 131.16 333.272 133.571C328.038 136.003 322.174 137.22 315.637 137.22C308.622 137.22 302.367 135.938 296.872 133.397C291.399 130.856 287.098 127.316 284.014 122.798C280.93 118.281 279.323 113.22 279.236 107.617L297.675 107.878C298.001 112.221 299.782 115.718 303.018 118.346H303.04Z" fill="#FCF5F5"/>
<path d="M463.194 101.079V136.589H445.493V100.449C445.493 90.6541 441.779 85.7673 434.329 85.7673C430.485 85.7673 427.379 87.1356 425.056 89.8505C422.71 92.5653 421.537 96.3443 421.537 101.209V136.589H403.836V100.449C403.836 90.6541 400.079 85.7673 392.543 85.7673C388.698 85.7673 385.614 87.179 383.312 89.9808C381.01 92.7825 379.859 96.5615 379.859 101.34V136.589H362.158V71.976H377.6L379.229 80.0119C381.401 77.2536 384.007 75.1252 387.004 73.6049C390.002 72.0846 393.781 71.3027 398.298 71.2158C407.507 71.2158 413.892 74.8646 417.497 82.1403C419.843 78.6219 422.905 75.9288 426.728 74.0393C430.529 72.1497 434.872 71.2158 439.716 71.2158C446.666 71.2158 452.312 73.518 456.656 78.1224C461 82.7267 463.172 90.3717 463.172 101.079H463.194Z" fill="#FCF5F5"/>
<path d="M489.732 75.2989C494.618 72.5841 500.287 71.2158 506.737 71.2158C513.188 71.2158 519.009 72.4972 523.982 75.0383C528.956 77.5794 532.843 81.1847 535.645 85.8325C538.447 90.4803 539.88 95.9317 539.967 102.208C539.967 104.467 539.793 106.465 539.468 108.225H492.664V108.724C493.076 113.415 494.597 117.086 497.181 119.757C499.766 122.429 503.328 123.775 507.845 123.775C511.45 123.775 514.426 122.993 516.815 121.451C519.204 119.909 520.768 117.629 521.528 114.61H538.968C538.295 118.867 536.666 122.733 534.081 126.142C531.497 129.552 528.065 132.267 523.787 134.243C519.53 136.22 514.621 137.197 509.105 137.197C501.916 137.197 495.704 135.851 490.47 133.179C485.236 130.508 481.218 126.685 478.416 121.69C475.615 116.717 474.225 110.918 474.225 104.315C474.225 97.7126 475.571 91.7834 478.308 86.8099C481.044 81.8363 484.823 77.992 489.732 75.2772V75.2989ZM517.467 87.5917C514.839 85.4633 511.516 84.3991 507.498 84.3991C503.48 84.3991 500.417 85.5067 497.768 87.722C495.14 89.9373 493.576 92.9345 493.055 96.6918H522.288C521.702 92.7607 520.094 89.7202 517.467 87.5917Z" fill="#FCF5F5"/>
<path d="M569.726 48.6504V136.481H552.025V48.6504H569.726Z" fill="#FCF5F5"/>
<path d="M602.107 53.9062V71.9762H616.789V86.9186H602.107V115.153C602.107 117.412 602.585 119.041 603.54 120.04C604.496 121.039 606.103 121.538 608.362 121.538H617.527V136.481H602.845C590.553 136.481 584.406 130.334 584.406 118.041V53.928H602.107V53.9062Z" fill="#FCF5F5"/>
<path d="M639.308 75.2989C644.195 72.5841 649.863 71.2158 656.314 71.2158C662.764 71.2158 668.585 72.4972 673.558 75.0383C678.532 77.5794 682.419 81.1847 685.221 85.8325C688.023 90.4803 689.456 95.9317 689.543 102.208C689.543 104.467 689.369 106.465 689.044 108.225H642.24V108.724C642.653 113.415 644.173 117.086 646.757 119.757C649.342 122.429 652.904 123.775 657.421 123.775C661.027 123.775 664.002 122.993 666.391 121.451C668.78 119.909 670.344 117.629 671.104 114.61H688.544C687.871 118.867 686.242 122.733 683.657 126.142C681.073 129.552 677.641 132.267 673.363 134.243C669.106 136.22 664.198 137.197 658.681 137.197C651.492 137.197 645.281 135.851 640.046 133.179C634.812 130.508 630.794 126.685 627.992 121.69C625.191 116.717 623.801 110.918 623.801 104.315C623.801 97.7126 625.147 91.7834 627.884 86.8099C630.62 81.8363 634.4 77.992 639.308 75.2772V75.2989ZM667.021 87.5917C664.393 85.4633 661.07 84.3991 657.052 84.3991C653.034 84.3991 649.972 85.5067 647.322 87.722C644.694 89.9373 643.13 92.9345 642.609 96.6918H671.842C671.256 92.7607 669.649 89.7202 667.021 87.5917Z" fill="#FCF5F5"/>
<path d="M740.869 88.0482H733.832C728.815 88.0482 725.123 89.5467 722.799 92.5656C720.454 95.5845 719.281 99.6677 719.281 104.858V136.481H701.58V71.998H717.63L719.259 81.6629C721.192 78.4919 723.559 76.0812 726.405 74.4523C729.25 72.8234 733.05 71.998 737.829 71.998H740.847V88.0482H740.869Z" fill="#FCF5F5"/>
<path d="M72.1562 102.621H87.5982V119.562H169.673V102.621H185.115V136.133H72.178V102.621H72.1562Z" fill="#F24664"/>
<path d="M161.112 72.2371C160.439 72.2371 159.266 72.4108 157.593 72.7366L147.299 75.1257C145.952 75.4515 144.54 75.6252 143.042 75.6252C139.61 75.6252 136.613 74.5176 134.072 72.3023C131.531 70.0869 129.707 66.9812 128.621 62.9632C127.947 66.9812 126.405 70.1087 123.973 72.3674C121.54 74.6261 118.587 75.7555 115.068 75.7555C113.722 75.7555 112.006 75.5383 109.921 75.1257L99.6262 72.7366C97.7801 72.4108 96.5638 72.2371 95.9774 72.2371C93.306 72.2371 91.221 73.0407 89.7659 74.6262C88.3107 76.2116 87.5723 78.4704 87.5723 81.4024L87.442 85.7896H72V82.1408C72 73.866 73.8244 67.3287 77.4514 62.5723C81.0784 57.8159 86.052 55.4268 92.3287 55.4268C94.1748 55.4268 95.8906 55.6006 97.476 55.9264L108.77 58.0548C109.595 58.3154 110.855 58.424 112.527 58.424C117.957 58.424 120.758 54.6233 120.932 47H136.244C136.331 50.7573 137.069 53.6242 138.438 55.6006C139.806 57.577 141.891 58.5543 144.649 58.5543C145.909 58.5543 147.147 58.3806 148.406 58.0548L159.7 55.9264C161.285 55.6006 163.001 55.4268 164.847 55.4268C171.124 55.4268 176.076 57.8159 179.725 62.5723C183.373 67.3504 185.176 73.866 185.176 82.1408V85.7896H169.734L169.604 81.4024C169.604 78.4704 168.844 76.2116 167.345 74.6262C165.846 73.0407 163.74 72.2371 161.068 72.2371H161.112Z" fill="#F24664"/>
<path d="M185.217 85.9418L234.779 65.3525V82.4234L204.916 94.2167L234.779 106.01V123.081L185.217 102.492V85.9201V85.9418Z" fill="#F24664"/>
<path d="M747.914 116.986C751.04 116.986 753.648 118.039 755.783 120.167C757.897 122.271 758.976 124.925 758.976 128.106C758.976 131.286 757.919 133.894 755.783 135.976C753.67 138.058 751.04 139.087 747.914 139.087C744.789 139.087 742.069 138.058 740 135.976C737.932 133.894 736.875 131.286 736.875 128.106C736.875 124.925 737.909 122.18 740 120.121C742.069 118.039 744.722 117.009 747.914 117.009V116.986Z" fill="#F24664"/>
</g>
<defs>
<clipPath id="clip0_356_138">
<rect width="687" height="93" fill="white" transform="translate(72 47)"/>
</clipPath>
</defs>
</svg>
